{
  "accessors": [
    {
      "bufferView": 2,
      "componentType": 5126,
      "count": 2319,
      "max": [
        194.24093627929688,
        73.78404998779297,
        100.42461395263672
      ],
      "min": [
        -20.435312271118164,
        -75.8309097290039,
        -78.17283630371094
      ],
      "type": "VEC3"
    },
    {
      "bufferView": 2,
      "byteOffset": 27828,
      "componentType": 5126,
      "count": 2319,
      "max": [
        1.0,
        1.0,
        1.0
      ],
      "min": [
        -1.0,
        -1.0,
        -1.0
      ],
      "type": "VEC3"
    },
    {
      "bufferView": 3,
      "componentType": 5126,
      "count": 2319,
      "max": [
        1.0,
        1.0,
        1.0,
        1.0
      ],
      "min": [
        -1.0,
        -1.0,
        -1.0,
        1.0
      ],
      "type": "VEC4"
    },
    {
      "bufferView": 1,
      "componentType": 5126,
      "count": 2319,
      "max": [
        0.9836325645446777,
        0.9874831438064575
      ],
      "min": [
        0.012469965033233166,
        0.01251684408634901
      ],
      "type": "VEC2"
    },
    {
      "bufferView": 0,
      "componentType": 5125,
      "count": 5322,
      "type": "SCALAR"
    }
  ],
  "asset": {
    "extras": {
      "author": "Théo Richard (https://sketchfab.com/theorichard)",
      "license": "CC-BY-NC-4.0 (http://creativecommons.org/licenses/by-nc/4.0/)",
      "source": "https://sketchfab.com/3d-models/telescope-b03b8fc3a5e343bab43f3fa81c024ce5",
      "title": "Telescope"
    },
    "generator": "Sketchfab-12.67.0",
    "version": "2.0"
  },
  "bufferViews": [
    {
      "buffer": 0,
      "byteLength": 21288,
      "name": "floatBufferViews",
      "target": 34963
    },
    {
      "buffer": 0,
      "byteLength": 18552,
      "byteOffset": 21288,
      "byteStride": 8,
      "name": "floatBufferViews",
      "target": 34962
    },
    {
      "buffer": 0,
      "byteLength": 55656,
      "byteOffset": 39840,
      "byteStride": 12,
      "name": "floatBufferViews",
      "target": 34962
    },
    {
      "buffer": 0,
      "byteLength": 37104,
      "byteOffset": 95496,
      "byteStride": 16,
      "name": "floatBufferViews",
      "target": 34962
    }
  ],
  "buffers": [
    {
      "byteLength": 132600,
      "uri": "scene.bin"
    }
  ],
  "images": [
    {
      "uri": "textures/telescope_baseColor.png"
    },
    {
      "uri": "textures/telescope_metallicRoughness.png"
    },
    {
      "uri": "textures/telescope_normal.png"
    }
  ],
  "materials": [
    {
      "doubleSided": true,
      "name": "telescope",
      "normalTexture": {
        "index": 2
      },
      "pbrMetallicRoughness": {
        "baseColorTexture": {
          "index": 0
        },
        "metallicRoughnessTexture": {
          "index": 1
        },
        "roughnessFactor": 0.32755335365853655
      }
    }
  ],
  "meshes": [
    {
      "name": "telescope_telescope_0",
      "primitives": [
        {
          "attributes": {
            "NORMAL": 1,
            "POSITION": 0,
            "TANGENT": 2,
            "TEXCOORD_0": 3
          },
          "indices": 4,
          "material": 0,
          "mode": 4
        }
      ]
    }
  ],
  "nodes": [
    {
      "children": [
        1
      ],
      "matrix": [
        1.0,
        0.0,
        0.0,
        0.0,
        0.0,
        2.220446049250313e-16,
        -1.0,
        0.0,
        0.0,
        1.0,
        2.220446049250313e-16,
        0.0,
        0.0,
        0.0,
        0.0,
        1.0
      ],
      "name": "Sketchfab_model"
    },
    {
      "children": [
        2
      ],
      "matrix": [
        1.0,
        0.0,
        0.0,
        0.0,
        0.0,
        0.0,
        1.0,
        0.0,
        0.0,
        -1.0,
        0.0,
        0.0,
        0.0,
        0.0,
        0.0,
        1.0
      ],
      "name": "telescope.FBX"
    },
    {
      "children": [
        3
      ],
      "name": "RootNode"
    },
    {
      "children": [
        4
      ],
      "matrix": [
        0.17364810008081322,
        -0.9848077666927308,
        5.551115123125783e-17,
        0.0,
        -1.6653345369377348e-16,
        -2.220446049250313e-16,
        -1.0,
        0.0,
        0.9848077666927308,
        0.17364810008081333,
        -2.220446049250313e-16,
        0.0,
        -14.887351989746094,
        29.481399536132813,
        0.0,
        1.0
      ],
      "name": "telescope"
    },
    {
      "mesh": 0,
      "name": "telescope_telescope_0"
    }
  ],
  "samplers": [
    {
      "magFilter": 9729,
      "minFilter": 9987,
      "wrapS": 10497,
      "wrapT": 10497
    }
  ],
  "scene": 0,
  "scenes": [
    {
      "name": "Sketchfab_Scene",
      "nodes": [
        0
      ]
    }
  ],
  "textures": [
    {
      "sampler": 0,
      "source": 0
    },
    {
      "sampler": 0,
      "source": 1
    },
    {
      "sampler": 0,
      "source": 2
    }
  ]
}
